<svg width="512" height="512" viewBox="0 0 128 128" fill="none" xmlns="http://www.w3.org/2000/svg">
  <defs>
    <linearGradient id="bg" x1="0" y1="0" x2="128" y2="128" gradientUnits="userSpaceOnUse">
      <stop offset="0%" stop-color="#047857"/>
      <stop offset="50%" stop-color="#059669"/>
      <stop offset="100%" stop-color="#34D399"/>
    </linearGradient>
  </defs>
  <!-- Outer rounded rectangle -->
  <rect x="4" y="4" width="120" height="120" rx="28" fill="url(#bg)"/>
  <!-- Grid lines -->
  <line x1="48" y1="18" x2="48" y2="110" stroke="white" stroke-opacity="0.18" stroke-width="2" stroke-linecap="round"/>
  <line x1="80" y1="18" x2="80" y2="110" stroke="white" stroke-opacity="0.18" stroke-width="2" stroke-linecap="round"/>
  <line x1="18" y1="44" x2="110" y2="44" stroke="white" stroke-opacity="0.18" stroke-width="2" stroke-linecap="round"/>
  <line x1="18" y1="70" x2="110" y2="70" stroke="white" stroke-opacity="0.18" stroke-width="2" stroke-linecap="round"/>
  <!-- Active cell highlight -->
  <rect x="50" y="46" width="28" height="22" rx="6" fill="white" opacity="0.25"/>
  <!-- Edit caret -->
  <rect x="60" y="50" width="2.5" height="14" rx="1.25" fill="white" opacity="0.9"/>
  <!-- Cell content hints -->
  <rect x="22" y="22" width="16" height="3.5" rx="1.75" fill="white" opacity="0.45"/>
  <rect x="22" y="29" width="10" height="3.5" rx="1.75" fill="white" opacity="0.25"/>
  <rect x="53" y="22" width="12" height="3.5" rx="1.75" fill="white" opacity="0.35"/>
  <rect x="53" y="29" width="18" height="3.5" rx="1.75" fill="white" opacity="0.2"/>
  <rect x="84" y="22" width="14" height="3.5" rx="1.75" fill="white" opacity="0.25"/>
  <rect x="22" y="50" width="18" height="3.5" rx="1.75" fill="white" opacity="0.35"/>
  <rect x="22" y="57" width="11" height="3.5" rx="1.75" fill="white" opacity="0.2"/>
  <rect x="22" y="76" width="14" height="3.5" rx="1.75" fill="white" opacity="0.25"/>
  <rect x="53" y="76" width="18" height="3.5" rx="1.75" fill="white" opacity="0.2"/>
  <!-- Rounded lightning bolt - bottom right, ~36x48 -->
  <g transform="translate(74, 56)">
    <path d="M18 0 Q15 0 14 3 L4 24 Q2 28 6 28 L12 28 Q14 28 13 31 L8 42 Q6 46 10 43 L34 22 Q37 20 34 18 L26 18 Q24 18 25 15 L30 4 Q31 1 28 0 Z" fill="white" opacity="0.93"/>
  </g>
</svg>
